<?xml version="1.0" encoding="UTF-8" standalone="no"?>
<!-- Created with Inkscape (http://www.inkscape.org/) -->

<svg
   xmlns:dc="http://purl.org/dc/elements/1.1/"
   xmlns:cc="http://creativecommons.org/ns#"
   xmlns:rdf="http://www.w3.org/1999/02/22-rdf-syntax-ns#"
   xmlns:svg="http://www.w3.org/2000/svg"
   xmlns="http://www.w3.org/2000/svg"
   xmlns:xlink="http://www.w3.org/1999/xlink"
   xmlns:sodipodi="http://sodipodi.sourceforge.net/DTD/sodipodi-0.dtd"
   xmlns:inkscape="http://www.inkscape.org/namespaces/inkscape"
   width="32px"
   height="32px"
   id="svg3054"
   version="1.1"
   inkscape:version="0.48.1 r9760"
   sodipodi:docname="Nouveau document 3">
  <defs
     id="defs3056">
    <radialGradient
       inkscape:collect="always"
       xlink:href="#linearGradient3275"
       id="radialGradient3281"
       cx="395"
       cy="741.64789"
       fx="395"
       fy="741.64789"
       r="280.71429"
       gradientTransform="matrix(1,0,0,0.2417303,0,562.36915)"
       gradientUnits="userSpaceOnUse" />
    <linearGradient
       inkscape:collect="always"
       id="linearGradient3275">
      <stop
         style="stop-color:#000000;stop-opacity:1;"
         offset="0"
         id="stop3277" />
      <stop
         style="stop-color:#000000;stop-opacity:0;"
         offset="1"
         id="stop3279" />
    </linearGradient>
    <radialGradient
       inkscape:collect="always"
       xlink:href="#linearGradient3171"
       id="radialGradient3221"
       gradientUnits="userSpaceOnUse"
       gradientTransform="matrix(1.7001916,0.0341391,-0.03266196,1.6266273,-225.36474,-314.79054)"
       cx="310.284"
       cy="456.20535"
       fx="310.284"
       fy="456.20535"
       r="250.87132" />
    <linearGradient
       inkscape:collect="always"
       id="linearGradient3171">
      <stop
         style="stop-color:#ffffff;stop-opacity:1;"
         offset="0"
         id="stop3173" />
      <stop
         style="stop-color:#ffffff;stop-opacity:0;"
         offset="1"
         id="stop3175" />
    </linearGradient>
    <radialGradient
       inkscape:collect="always"
       xlink:href="#linearGradient3171"
       id="radialGradient3269"
       gradientUnits="userSpaceOnUse"
       gradientTransform="matrix(1.7001916,0.0341391,-0.03266196,1.6266273,-225.36474,-314.79054)"
       cx="310.284"
       cy="456.20535"
       fx="310.284"
       fy="456.20535"
       r="250.87132" />
  </defs>
  <sodipodi:namedview
     id="base"
     pagecolor="#ffffff"
     bordercolor="#666666"
     borderopacity="1.0"
     inkscape:pageopacity="0.0"
     inkscape:pageshadow="2"
     inkscape:zoom="11.197802"
     inkscape:cx="16"
     inkscape:cy="16"
     inkscape:current-layer="layer1"
     showgrid="true"
     inkscape:grid-bbox="true"
     inkscape:document-units="px"
     inkscape:window-width="905"
     inkscape:window-height="697"
     inkscape:window-x="1280"
     inkscape:window-y="32"
     inkscape:window-maximized="0" />
  <metadata
     id="metadata3059">
    <rdf:RDF>
      <cc:Work
         rdf:about="">
        <dc:format>image/svg+xml</dc:format>
        <dc:type
           rdf:resource="http://purl.org/dc/dcmitype/StillImage" />
        <dc:title></dc:title>
      </cc:Work>
    </rdf:RDF>
  </metadata>
  <g
     id="layer1"
     inkscape:label="Layer 1"
     inkscape:groupmode="layer">
    <g
       id="g3283"
       transform="matrix(0.05225654,0,0,0.05225654,-2.8738208,-9.8992984)">
      <path
         transform="matrix(1,0,0,0.8736842,-52.857143,67.967557)"
         d="m 675.71429,741.64789 c 0,37.47646 -125.68007,67.85714 -280.71429,67.85714 -155.03422,0 -280.71429,-30.38068 -280.71429,-67.85714 0,-37.47647 125.68007,-67.85714 280.71429,-67.85714 155.03422,0 280.71429,30.38067 280.71429,67.85714 z"
         sodipodi:ry="67.85714"
         sodipodi:rx="280.71429"
         sodipodi:cy="741.64789"
         sodipodi:cx="395"
         id="path3273"
         style="opacity:0.69732941;fill:url(#radialGradient3281);fill-opacity:1;stroke:none"
         sodipodi:type="arc" />
      <rect
         y="75.219322"
         x="8.5714283"
         height="728.57141"
         width="728.57141"
         id="rect2385"
         style="fill:none;stroke:none" />
      <path
         sodipodi:nodetypes="cccccc"
         id="path3165"
         d="m 211.12189,403.84425 c 11.87466,-136.1596 132.59294,-183.5196 224.25386,-72.73098 133.40532,-43.04967 191.91286,42.01571 125.25892,164.65486 53.03315,62.88694 4.51202,211.38486 -138.39091,139.40106 C 336.27491,726.67755 230.49992,722.47753 216.17265,590.72247 89.580091,598.92183 38.69458,443.08301 211.12189,403.84425 z"
         style="fill:#729fcf;fill-rule:evenodd;stroke:#204a87;stroke-width:14;stroke-linecap:butt;stroke-linejoin:round;stroke-miterlimit:4;stroke-opacity:1;stroke-dasharray:none"
         inkscape:connector-curvature="0" />
      <path
         id="path3169"
         d="m 322.96875,283.5625 c -38.30227,0.82953 -70.89434,30.10738 -84.561,64.53943 -8.83465,20.23528 -10.17955,42.87358 -16.7515,63.61682 -11.53403,11.10812 -29.37875,8.65937 -42.64805,16.55684 -27.91081,11.1116 -55.47426,31.58654 -63.10195,62.06816 -6.59087,31.21533 13.38539,63.68974 41.9375,76 19.94338,10.48828 43.50614,9.83833 65.21875,12.8125 10.34901,8.14545 7.60414,23.13312 11.03201,34.50686 5.91975,26.74743 20.63371,54.9766 47.40549,65.58689 28.30004,10.35749 59.6356,0.43165 84.1651,-14.83506 19.73913,-11.90924 34.81041,-29.91572 54.17865,-42.19619 17.01649,0.0471 30.22159,13.54188 46.96866,15.15463 26.12888,6.65629 57.60453,3.21745 76.71884,-17.37338 30.61428,-31.15072 31.53957,-84.59072 5.21875,-118.59375 -3.70011,-13.21305 7.29544,-24.0807 11.04824,-35.8963 12.58138,-29.49677 20.81134,-64.19176 8.26426,-95.07245 -10.14327,-23.02962 -35.40606,-35.75006 -59.78125,-36.59375 -25.13497,-1.98199 -49.4921,6.22668 -73.96875,10.0625 -13.10131,-2.36552 -18.48375,-16.1213 -28.15625,-23.78125 -22.43716,-20.93605 -51.69528,-37.29095 -83.1875,-36.5625 z"
         style="opacity:0.56973297;fill:url(#radialGradient3221);fill-opacity:1;fill-rule:evenodd;stroke:#ffffff;stroke-width:14;stroke-linecap:butt;stroke-linejoin:round;stroke-miterlimit:4;stroke-opacity:1;stroke-dasharray:none"
         inkscape:connector-curvature="0" />
      <path
         id="path3223"
         d="m 322.875,277.5625 c -43.86529,1.541 -80.8445,36.33054 -93.6875,76.90625 -6.48599,18.01139 -5.35302,38.40568 -15.09375,55.25 -19.54483,9.41268 -42.64695,10.59329 -60.22828,24.2402 -25.16608,14.98845 -46.513,41.78648 -45.03256,72.38346 2.3886,39.11557 37.46748,70.8743 75.57334,74.68884 12.3109,2.02317 25.72099,0.4654 37.125,5.71875 8.09584,16.3321 4.8011,36.19108 14.125,52.21875 10.71976,25.99575 34.566,48.90025 63.875,50.0625 38.67881,2.78293 74.24455,-18.64893 101.20479,-44.46619 6.99287,-6.16696 14.41601,-14.31126 24.13783,-15.50014 21.15588,5.64532 40.83557,19.2078 63.62613,17.68508 35.47756,1.98344 70.73093,-22.34012 80.06623,-56.85493 10.37904,-31.10277 3.59114,-66.34563 -14.15998,-93.27007 1.63204,-17.74042 15.65028,-31.37639 18.50746,-48.83487 9.77154,-29.60378 11.96404,-65.18394 -6.68684,-91.88969 -19.7815,-25.51061 -55.39869,-32.5591 -85.91437,-27.08794 -16.40518,2.3774 -32.45876,9.37305 -49.25,7.21875 -15.79773,-11.5709 -26.06216,-30.07256 -44.34375,-38.71875 -18.92946,-12.17406 -41.07411,-20.3958 -63.84375,-19.75 z"
         style="opacity:0.69732941;fill:url(#radialGradient3269);fill-opacity:1;fill-rule:evenodd;stroke:none"
         inkscape:connector-curvature="0" />
      <path
         style="opacity:0.56973297;fill:none;stroke:#ffffff;stroke-width:14;stroke-linecap:butt;stroke-linejoin:round;stroke-miterlimit:4;stroke-opacity:1;stroke-dasharray:none"
         d="m 322.96875,283.5625 c -38.30227,0.82953 -70.89434,30.10738 -84.561,64.53943 -8.83465,20.23528 -10.17955,42.87358 -16.7515,63.61682 -11.53403,11.10812 -29.37875,8.65937 -42.64805,16.55684 -27.91081,11.1116 -55.47426,31.58654 -63.10195,62.06816 -6.59087,31.21533 13.38539,63.68974 41.9375,76 19.94338,10.48828 43.50614,9.83833 65.21875,12.8125 10.34901,8.14545 7.60414,23.13312 11.03201,34.50686 5.91975,26.74743 20.63371,54.9766 47.40549,65.58689 28.30004,10.35749 59.6356,0.43165 84.1651,-14.83506 19.73913,-11.90924 34.81041,-29.91572 54.17865,-42.19619 17.01649,0.0471 30.22159,13.54188 46.96866,15.15463 26.12888,6.65629 57.60453,3.21745 76.71884,-17.37338 30.61428,-31.15072 31.53957,-84.59072 5.21875,-118.59375 -3.70011,-13.21305 7.29544,-24.0807 11.04824,-35.8963 12.58138,-29.49677 20.81134,-64.19176 8.26426,-95.07245 -10.14327,-23.02962 -35.40606,-35.75006 -59.78125,-36.59375 -25.13497,-1.98199 -49.4921,6.22668 -73.96875,10.0625 -13.10131,-2.36552 -18.48375,-16.1213 -28.15625,-23.78125 -22.43716,-20.93605 -51.69528,-37.29095 -83.1875,-36.5625 z"
         id="path3271"
         inkscape:connector-curvature="0" />
    </g>
  </g>
</svg>
