<?xml version="1.0" encoding="UTF-8" standalone="no"?>
<!-- Created with Inkscape (http://www.inkscape.org/) -->

<svg
   xmlns:dc="http://purl.org/dc/elements/1.1/"
   xmlns:cc="http://creativecommons.org/ns#"
   xmlns:rdf="http://www.w3.org/1999/02/22-rdf-syntax-ns#"
   xmlns:svg="http://www.w3.org/2000/svg"
   xmlns="http://www.w3.org/2000/svg"
   xmlns:xlink="http://www.w3.org/1999/xlink"
   xmlns:sodipodi="http://sodipodi.sourceforge.net/DTD/sodipodi-0.dtd"
   xmlns:inkscape="http://www.inkscape.org/namespaces/inkscape"
   width="32px"
   height="32px"
   id="svg3225"
   version="1.1"
   inkscape:version="0.48.1 r9760"
   sodipodi:docname="Nouveau document 2">
  <defs
     id="defs3227">
    <radialGradient
       r="16.375"
       fy="43"
       fx="23.8125"
       cy="43"
       cx="23.8125"
       gradientTransform="matrix(1,0,0,0.194656,0,34.62977)"
       gradientUnits="userSpaceOnUse"
       id="radialGradient3237"
       xlink:href="#linearGradient3188"
       inkscape:collect="always" />
    <linearGradient
       id="linearGradient3188"
       inkscape:collect="always">
      <stop
         id="stop3190"
         offset="0"
         style="stop-color:white;stop-opacity:1;" />
      <stop
         id="stop3192"
         offset="1"
         style="stop-color:white;stop-opacity:0;" />
    </linearGradient>
    <linearGradient
       gradientUnits="userSpaceOnUse"
       id="linearGradient2506"
       inkscape:collect="always"
       x1="23.467106"
       x2="23.467106"
       xlink:href="#linearGradient3303"
       y1="20.201925"
       y2="17.015749" />
    <linearGradient
       id="linearGradient3303"
       inkscape:collect="always">
      <stop
         id="stop3305"
         offset="0"
         style="stop-color:#888a85;stop-opacity:1" />
      <stop
         id="stop3307"
         offset="1"
         style="stop-color:#eeeeec;stop-opacity:1" />
    </linearGradient>
    <linearGradient
       gradientUnits="userSpaceOnUse"
       id="linearGradient2508"
       inkscape:collect="always"
       x1="32.309578"
       x2="44.187737"
       xlink:href="#linearGradient3397"
       y1="15.875"
       y2="15.875" />
    <linearGradient
       id="linearGradient3397"
       inkscape:collect="always">
      <stop
         id="stop3399"
         offset="0"
         style="stop-color:#555753;stop-opacity:1" />
      <stop
         id="stop3401"
         offset="1"
         style="stop-color:#d3d7cf;stop-opacity:0;" />
    </linearGradient>
    <linearGradient
       gradientUnits="userSpaceOnUse"
       id="linearGradient2510"
       inkscape:collect="always"
       x1="37.124252"
       x2="47.5625"
       xlink:href="#linearGradient3377"
       y1="13.375"
       y2="13.375" />
    <linearGradient
       id="linearGradient3377"
       inkscape:collect="always">
      <stop
         id="stop3379"
         offset="0"
         style="stop-color:#555753;stop-opacity:1" />
      <stop
         id="stop3381"
         offset="1"
         style="stop-color:#888a85;stop-opacity:0;" />
    </linearGradient>
    <linearGradient
       gradientUnits="userSpaceOnUse"
       id="linearGradient2512"
       inkscape:collect="always"
       x1="37.551125"
       x2="46.821011"
       xlink:href="#linearGradient3359"
       y1="26.433243"
       y2="26.433243" />
    <linearGradient
       id="linearGradient3359"
       inkscape:collect="always">
      <stop
         id="stop3361"
         offset="0"
         style="stop-color:white;stop-opacity:1;" />
      <stop
         id="stop3363"
         offset="1"
         style="stop-color:white;stop-opacity:0;" />
    </linearGradient>
    <linearGradient
       gradientUnits="userSpaceOnUse"
       id="linearGradient2514"
       inkscape:collect="always"
       x1="36.122208"
       x2="47.312737"
       xlink:href="#linearGradient3325"
       y1="15.875"
       y2="15.875" />
    <linearGradient
       id="linearGradient3325"
       inkscape:collect="always">
      <stop
         id="stop3327"
         offset="0"
         style="stop-color:#babdb6;stop-opacity:1" />
      <stop
         id="stop3333"
         offset="1"
         style="stop-color:#d3d7cf;stop-opacity:0;" />
    </linearGradient>
    <linearGradient
       gradientUnits="userSpaceOnUse"
       id="linearGradient2516"
       inkscape:collect="always"
       x1="41.125"
       x2="47.5625"
       xlink:href="#linearGradient2397"
       y1="13.375"
       y2="13.375" />
    <linearGradient
       id="linearGradient2397"
       inkscape:collect="always">
      <stop
         id="stop2399"
         offset="0"
         style="stop-color:#555753;stop-opacity:1" />
      <stop
         id="stop2401"
         offset="1"
         style="stop-color:#888a85;stop-opacity:0;" />
    </linearGradient>
    <radialGradient
       cx="31.349806"
       cy="14.914701"
       fx="31.349794"
       fy="14.914677"
       gradientTransform="matrix(1.027139,7.049762e-7,-2.341676e-7,0.341179,-0.857269,11.25477)"
       gradientUnits="userSpaceOnUse"
       id="radialGradient2518"
       inkscape:collect="always"
       r="12"
       xlink:href="#linearGradient3417" />
    <linearGradient
       id="linearGradient3417"
       inkscape:collect="always">
      <stop
         id="stop3419"
         offset="0"
         style="stop-color:white;stop-opacity:1" />
      <stop
         id="stop3421"
         offset="1"
         style="stop-color:#eeeeec;stop-opacity:0;" />
    </linearGradient>
    <linearGradient
       gradientUnits="userSpaceOnUse"
       id="linearGradient2520"
       inkscape:collect="always"
       x1="35.176235"
       x2="47.651093"
       xlink:href="#linearGradient3351"
       y1="17.240854"
       y2="17.240854" />
    <linearGradient
       id="linearGradient3351"
       inkscape:collect="always">
      <stop
         id="stop3353"
         offset="0"
         style="stop-color:white;stop-opacity:1;" />
      <stop
         id="stop3355"
         offset="1"
         style="stop-color:white;stop-opacity:0;" />
    </linearGradient>
    <linearGradient
       gradientUnits="userSpaceOnUse"
       id="linearGradient2522"
       inkscape:collect="always"
       x1="35.253414"
       x2="48.08326"
       xlink:href="#linearGradient3327"
       y1="14.589205"
       y2="14.589205" />
    <linearGradient
       id="linearGradient3327"
       inkscape:collect="always">
      <stop
         id="stop3329"
         offset="0"
         style="stop-color:white;stop-opacity:1;" />
      <stop
         id="stop3331"
         offset="1"
         style="stop-color:white;stop-opacity:0;" />
    </linearGradient>
    <linearGradient
       gradientUnits="userSpaceOnUse"
       id="linearGradient2524"
       inkscape:collect="always"
       x1="37.551125"
       x2="46.258511"
       xlink:href="#linearGradient3359"
       y1="26.433243"
       y2="26.433243" />
    <linearGradient
       gradientUnits="userSpaceOnUse"
       id="linearGradient2526"
       inkscape:collect="always"
       x1="34.122208"
       x2="44.853527"
       xlink:href="#linearGradient3346"
       y1="15.8125"
       y2="16.0625" />
    <linearGradient
       id="linearGradient3346"
       inkscape:collect="always">
      <stop
         id="stop3349"
         offset="0"
         style="stop-color:#555753;stop-opacity:1" />
      <stop
         id="stop3351"
         offset="1"
         style="stop-color:#d3d7cf;stop-opacity:0;" />
    </linearGradient>
    <linearGradient
       gradientUnits="userSpaceOnUse"
       id="linearGradient2528"
       inkscape:collect="always"
       x1="37.5"
       x2="47.5625"
       xlink:href="#linearGradient2391"
       y1="13.4375"
       y2="13.375" />
    <linearGradient
       id="linearGradient2391"
       inkscape:collect="always">
      <stop
         id="stop2393"
         offset="0"
         style="stop-color:#555753;stop-opacity:1" />
      <stop
         id="stop2395"
         offset="1"
         style="stop-color:#888a85;stop-opacity:0;" />
    </linearGradient>
    <linearGradient
       gradientUnits="userSpaceOnUse"
       id="linearGradient2530"
       inkscape:collect="always"
       x1="37.551125"
       x2="44.822086"
       xlink:href="#linearGradient3359"
       y1="26.433243"
       y2="26.433243" />
    <linearGradient
       gradientUnits="userSpaceOnUse"
       id="linearGradient2532"
       inkscape:collect="always"
       x1="29.861185"
       x2="46.562737"
       xlink:href="#linearGradient3387"
       y1="15.875"
       y2="15.875" />
    <linearGradient
       id="linearGradient3387">
      <stop
         id="stop3389"
         offset="0"
         style="stop-color:#8f9388;stop-opacity:1;" />
      <stop
         id="stop3354"
         offset="0.5"
         style="stop-color:#c6cac2;stop-opacity:1;" />
      <stop
         id="stop3391"
         offset="1"
         style="stop-color:#d3d7cf;stop-opacity:0;" />
    </linearGradient>
    <linearGradient
       gradientUnits="userSpaceOnUse"
       id="linearGradient2534"
       inkscape:collect="always"
       x1="41.125"
       x2="47.5625"
       xlink:href="#linearGradient2379"
       y1="13.375"
       y2="13.375" />
    <linearGradient
       id="linearGradient2379"
       inkscape:collect="always">
      <stop
         id="stop2381"
         offset="0"
         style="stop-color:#555753;stop-opacity:1" />
      <stop
         id="stop2383"
         offset="1"
         style="stop-color:#888a85;stop-opacity:0;" />
    </linearGradient>
    <radialGradient
       cx="35.973373"
       cy="14.052355"
       fx="35.973362"
       fy="14.05233"
       gradientTransform="matrix(0.751224,2.345941e-6,-7.16423e-7,0.229414,8.256114,12.93155)"
       gradientUnits="userSpaceOnUse"
       id="radialGradient2536"
       inkscape:collect="always"
       r="12"
       xlink:href="#linearGradient3417" />
    <linearGradient
       gradientUnits="userSpaceOnUse"
       id="linearGradient2538"
       inkscape:collect="always"
       x1="35.176235"
       x2="47.651093"
       xlink:href="#linearGradient3351"
       y1="17.240854"
       y2="17.240854" />
    <linearGradient
       gradientUnits="userSpaceOnUse"
       id="linearGradient2540"
       inkscape:collect="always"
       x1="35.253414"
       x2="48.08326"
       xlink:href="#linearGradient3327"
       y1="14.589205"
       y2="14.589205" />
    <linearGradient
       gradientUnits="userSpaceOnUse"
       id="linearGradient2542"
       inkscape:collect="always"
       x1="37.551125"
       x2="44.571289"
       xlink:href="#linearGradient3359"
       y1="26.433243"
       y2="26.433243" />
    <linearGradient
       gradientUnits="userSpaceOnUse"
       id="linearGradient2544"
       inkscape:collect="always"
       x1="20"
       x2="20"
       xlink:href="#linearGradient3473"
       y1="24"
       y2="19.121248" />
    <linearGradient
       id="linearGradient3473">
      <stop
         id="stop3475"
         offset="0"
         style="stop-color:#888a85;stop-opacity:1" />
      <stop
         id="stop3481"
         offset="0.5"
         style="stop-color:#eeeeec;stop-opacity:1;" />
      <stop
         id="stop3477"
         offset="1"
         style="stop-color:#cecec8;stop-opacity:1;" />
    </linearGradient>
    <radialGradient
       cx="7.0126991"
       cy="22.25555"
       fx="7.0126991"
       fy="22.25555"
       gradientTransform="matrix(0.21225,0,0,0.254807,12.01156,16.32913)"
       gradientUnits="userSpaceOnUse"
       id="radialGradient2504"
       inkscape:collect="always"
       r="13"
       xlink:href="#linearGradient3487" />
    <linearGradient
       id="linearGradient3487"
       inkscape:collect="always">
      <stop
         id="stop3489"
         offset="0"
         style="stop-color:white;stop-opacity:1" />
      <stop
         id="stop3491"
         offset="1"
         style="stop-color:#eeeeec;stop-opacity:0;" />
    </linearGradient>
    <radialGradient
       r="16.375"
       fy="43"
       fx="23.8125"
       cy="43"
       cx="23.8125"
       gradientTransform="matrix(1,0,0,0.194656,0,34.62977)"
       gradientUnits="userSpaceOnUse"
       id="radialGradient3223"
       xlink:href="#linearGradient3188"
       inkscape:collect="always" />
  </defs>
  <sodipodi:namedview
     id="base"
     pagecolor="#ffffff"
     bordercolor="#666666"
     borderopacity="1.0"
     inkscape:pageopacity="0.0"
     inkscape:pageshadow="2"
     inkscape:zoom="11.197802"
     inkscape:cx="13.142296"
     inkscape:cy="16"
     inkscape:current-layer="layer1"
     showgrid="true"
     inkscape:grid-bbox="true"
     inkscape:document-units="px"
     inkscape:window-width="968"
     inkscape:window-height="728"
     inkscape:window-x="1"
     inkscape:window-y="59"
     inkscape:window-maximized="0" />
  <metadata
     id="metadata3230">
    <rdf:RDF>
      <cc:Work
         rdf:about="">
        <dc:format>image/svg+xml</dc:format>
        <dc:type
           rdf:resource="http://purl.org/dc/dcmitype/StillImage" />
        <dc:title></dc:title>
      </cc:Work>
    </rdf:RDF>
  </metadata>
  <g
     id="layer1"
     inkscape:label="Layer 1"
     inkscape:groupmode="layer">
    <path
       d="m 40.1875,43 a 16.375,3.1875 0 1 1 -32.75,0 16.375,3.1875 0 1 1 32.75,0 z"
       id="path4121"
       sodipodi:cx="23.8125"
       sodipodi:cy="43"
       sodipodi:rx="16.375"
       sodipodi:ry="3.1875"
       sodipodi:type="arc"
       style="opacity:0.2;color:#000000;fill:url(#radialGradient3223);fill-opacity:1;fill-rule:nonzero;stroke:none;stroke-width:1;marker:none;visibility:visible;display:inline;overflow:visible"
       transform="matrix(0.65505022,0,0,0.86532647,0.17773224,-7.455251)" />
    <g
       transform="matrix(0.61293946,0,0,0.61293946,1.3720442,3.0909253)"
       id="g3410">
      <rect
         height="5.0000014"
         id="rect2308"
         style="fill:url(#linearGradient2506);fill-opacity:1;stroke:#555753;stroke-width:0.99999952;stroke-linecap:round;stroke-linejoin:miter;stroke-miterlimit:4;stroke-opacity:1;stroke-dasharray:none;stroke-dashoffset:1.4"
         width="17.000036"
         x="15.499967"
         y="16.499998" />
      <path
         inkscape:connector-curvature="0"
         d="m 26.5,22.5 c 0,3 5.201962,5.000001 6.9375,5 l 17.0625,0 0,-5 -24,0 z"
         id="path2387"
         sodipodi:nodetypes="ccccc"
         style="fill:url(#linearGradient2508);fill-opacity:1;stroke:url(#linearGradient2510);stroke-width:0.99999917;stroke-linecap:round;stroke-linejoin:miter;stroke-miterlimit:4;stroke-opacity:1;stroke-dasharray:none;stroke-dashoffset:1.4" />
      <path
         inkscape:connector-curvature="0"
         d="m 49.5,23.5 -14.59375,0 c -0.402974,0.324101 -0.877334,0.5 -1.375,0.5"
         id="path3315"
         sodipodi:nodetypes="ccc"
         style="opacity:0.7;fill:none;stroke:url(#linearGradient2512);stroke-width:0.99999917;stroke-linecap:round;stroke-linejoin:miter;stroke-miterlimit:4;stroke-opacity:1;stroke-dasharray:none;stroke-dashoffset:1.4" />
      <path
         inkscape:connector-curvature="0"
         d="M 11.1875,18.5 C 10.768143,19.213373 10.5,20.075257 10.5,21 c 0,2.492998 1.766265,4.499999 3.96875,4.5 l 19.0625,0 c 2.202485,0 3.968751,-2.007001 3.96875,-4.5 0,-0.924743 -0.268143,-1.786627 -0.6875,-2.5 L 34,18.5 c -1.211875,0 -2.205146,0.85874 -2.4375,2 L 30,20.5 25.53125,20.5 18,20.5 c -1.211876,1e-6 -2.205146,-0.85874 -2.4375,-2 l -4.375,0 z"
         id="rect2342"
         style="fill:#d3d7cf;fill-opacity:1;stroke:#888a85;stroke-width:0.99999911;stroke-linecap:round;stroke-linejoin:miter;stroke-miterlimit:4;stroke-opacity:1;stroke-dasharray:none;stroke-dashoffset:1.4" />
      <path
         inkscape:connector-curvature="0"
         d="m 17.5,17.5 13,0"
         id="path3301"
         style="opacity:0.5;fill:none;stroke:#ffffff;stroke-width:1px;stroke-linecap:butt;stroke-linejoin:miter;stroke-opacity:1" />
      <path
         inkscape:connector-curvature="0"
         d="m 32.4375,13.5 c -2.110715,0 -5.798132,3.08704 -5.9375,7 l 8.96875,0 0,-2 15.03125,0 0,-5 -18.0625,0 z"
         id="path2389"
         sodipodi:nodetypes="ccccccc"
         style="fill:url(#linearGradient2514);fill-opacity:1;stroke:url(#linearGradient2516);stroke-width:0.99999917;stroke-linecap:round;stroke-linejoin:miter;stroke-miterlimit:4;stroke-opacity:1;stroke-dasharray:none;stroke-dashoffset:1.4" />
      <path
         d="m 32.4375,13.96875 c -0.826833,0 -2.235751,0.681052 -3.375,1.875 -1.033483,1.083104 -1.837153,2.571494 -2.03125,4.1875 L 35,20.03125 35,18.5 a 0.46879688,0.46879688 0 0 1 0.46875,-0.46875 l 14.5625,0 0,-4.0625 -17.59375,0 z"
         id="path3407"
         inkscape:original="M 32.4375 13.5 C 30.326785 13.5 26.639368 16.58704 26.5 20.5 L 35.46875 20.5 L 35.46875 18.5 L 50.5 18.5 L 50.5 13.5 L 32.4375 13.5 z "
         inkscape:radius="-0.46875"
         sodipodi:type="inkscape:offset"
         style="opacity:0.8;fill:url(#radialGradient2518);fill-opacity:1;stroke:none" />
      <path
         inkscape:connector-curvature="0"
         d="M 30.65625,22 C 30.562069,21.681452 30.5,21.350165 30.5,21 c 0,-1.921703 1.578298,-3.5 3.5,-3.5 l 15.5,0"
         id="path3311"
         sodipodi:nodetypes="cscc"
         style="opacity:0.6;fill:none;stroke:url(#linearGradient2520);stroke-width:0.99999917;stroke-linecap:round;stroke-linejoin:miter;stroke-miterlimit:4;stroke-opacity:1;stroke-dasharray:none;stroke-dashoffset:1.4" />
      <path
         inkscape:connector-curvature="0"
         d="m 49.5,14.5 -17.0625,0 c -0.567839,0 -1.933132,0.600658 -3,1.71875 C 28.370632,17.336842 27.55885,18.847695 27.5,20.5 l 0,1.5"
         id="path3313"
         sodipodi:nodetypes="ccscc"
         style="fill:none;stroke:url(#linearGradient2522);stroke-width:0.99999917;stroke-linecap:round;stroke-linejoin:miter;stroke-miterlimit:4;stroke-opacity:1;stroke-dasharray:none;stroke-dashoffset:1.4" />
      <path
         inkscape:connector-curvature="0"
         d="m 28.21875,24 c 0.402721,0.450694 0.936985,0.871288 1.59375,1.25 1.374593,0.792634 3.141359,1.25 3.625,1.25 l 16.0625,0"
         id="path3317"
         sodipodi:nodetypes="cscc"
         style="opacity:0.4;fill:none;stroke:url(#linearGradient2524);stroke-width:0.99999917;stroke-linecap:round;stroke-linejoin:miter;stroke-miterlimit:4;stroke-opacity:1;stroke-dasharray:none;stroke-dashoffset:1.4" />
      <g
         id="g3264"
         transform="matrix(-1,0,0,1,48,0)">
        <path
           inkscape:connector-curvature="0"
           d="m 26.5,22.5 c 0,3 5.201962,5.000001 6.9375,5 l 17.0625,0 0,-5 -24,0 z"
           id="path3250"
           sodipodi:nodetypes="ccccc"
           style="fill:url(#linearGradient2526);fill-opacity:1;stroke:url(#linearGradient2528);stroke-width:0.99999917;stroke-linecap:round;stroke-linejoin:miter;stroke-miterlimit:4;stroke-opacity:1;stroke-dasharray:none;stroke-dashoffset:1.4" />
        <path
           inkscape:connector-curvature="0"
           d="m 49.5,23.5 -14.59375,0 c -0.402974,0.324101 -0.877334,0.5 -1.375,0.5"
           id="path3252"
           sodipodi:nodetypes="ccc"
           style="opacity:0.7;fill:none;stroke:url(#linearGradient2530);stroke-width:0.99999917;stroke-linecap:round;stroke-linejoin:miter;stroke-miterlimit:4;stroke-opacity:1;stroke-dasharray:none;stroke-dashoffset:1.4" />
        <path
           inkscape:connector-curvature="0"
           d="m 32.4375,13.5 c -2.110715,0 -5.798132,3.08704 -5.9375,7 l 8.96875,0 0,-2 15.03125,0 0,-5 -18.0625,0 z"
           id="path3254"
           sodipodi:nodetypes="ccccccc"
           style="fill:url(#linearGradient2532);fill-opacity:1;stroke:url(#linearGradient2534);stroke-width:0.99999917;stroke-linecap:round;stroke-linejoin:miter;stroke-miterlimit:4;stroke-opacity:1;stroke-dasharray:none;stroke-dashoffset:1.4" />
        <path
           d="m 32.4375,13.96875 c -0.826833,0 -2.235751,0.681052 -3.375,1.875 -1.033483,1.083104 -1.837153,2.571494 -2.03125,4.1875 L 35,20.03125 35,18.5 a 0.46879688,0.46879688 0 0 1 0.46875,-0.46875 l 14.5625,0 0,-4.0625 -17.59375,0 z"
           id="path3256"
           inkscape:original="M 32.4375 13.5 C 30.326785 13.5 26.639368 16.58704 26.5 20.5 L 35.46875 20.5 L 35.46875 18.5 L 50.5 18.5 L 50.5 13.5 L 32.4375 13.5 z "
           inkscape:radius="-0.46875"
           sodipodi:type="inkscape:offset"
           style="opacity:0.7;fill:url(#radialGradient2536);fill-opacity:1;stroke:none" />
        <path
           inkscape:connector-curvature="0"
           d="M 30.65625,22 C 30.562069,21.681452 30.5,21.350165 30.5,21 c 0,-1.921703 1.578298,-3.5 3.5,-3.5 l 15.5,0"
           id="path3258"
           sodipodi:nodetypes="cscc"
           style="opacity:0.6;fill:none;stroke:url(#linearGradient2538);stroke-width:0.99999917;stroke-linecap:round;stroke-linejoin:miter;stroke-miterlimit:4;stroke-opacity:1;stroke-dasharray:none;stroke-dashoffset:1.4" />
        <path
           inkscape:connector-curvature="0"
           d="m 49.5,14.5 -17.0625,0 c -0.567839,0 -1.933132,0.600658 -3,1.71875 C 28.370632,17.336842 27.55885,18.847695 27.5,20.5 l 0,1.5"
           id="path3260"
           sodipodi:nodetypes="ccscc"
           style="fill:none;stroke:url(#linearGradient2540);stroke-width:0.99999917;stroke-linecap:round;stroke-linejoin:miter;stroke-miterlimit:4;stroke-opacity:1;stroke-dasharray:none;stroke-dashoffset:1.4" />
        <path
           inkscape:connector-curvature="0"
           d="m 28.21875,24 c 0.402721,0.450694 0.936985,0.871288 1.59375,1.25 1.374593,0.792634 3.141359,1.25 3.625,1.25 l 16.0625,0"
           id="path3262"
           sodipodi:nodetypes="cscc"
           style="opacity:0.5;fill:none;stroke:url(#linearGradient2542);stroke-width:0.99999917;stroke-linecap:round;stroke-linejoin:miter;stroke-miterlimit:4;stroke-opacity:1;stroke-dasharray:none;stroke-dashoffset:1.4" />
      </g>
      <path
         inkscape:connector-curvature="0"
         d="M 11.1875,18.5 C 10.768143,19.213373 10.5,20.075257 10.5,21 c -10e-7,2.492999 1.766265,4.5 3.96875,4.5 l 19.0625,0 c 2.202485,0 3.968751,-2.007001 3.96875,-4.5 0,-0.924743 -0.268143,-1.786627 -0.6875,-2.5 L 34,18.5 c -1.211875,0 -2.205146,0.85874 -2.4375,2 l -15.125,0 C 16.205146,19.35874 15.211875,18.5 14,18.5 l -2.8125,0 z"
         id="path2369"
         sodipodi:nodetypes="csccscccccc"
         style="fill:url(#linearGradient2544);fill-opacity:1;stroke:#555753;stroke-width:0.99999911;stroke-linecap:round;stroke-linejoin:round;stroke-miterlimit:4;stroke-opacity:1;stroke-dasharray:none;stroke-dashoffset:1.4" />
      <path
         inkscape:connector-curvature="0"
         d="m 35.8125,18 0,0 z m -24.25,1 c -0.222326,0.430873 -0.440293,0.902367 -0.53125,1.40625 C 10.996251,20.600139 11,20.795284 11,21 c -10e-7,1.128418 0.401404,2.125855 1.03125,2.84375 0.157292,0.179772 0.315348,0.326549 0.5,0.46875 0.184652,0.142201 0.386524,0.275285 0.59375,0.375 C 13.539199,24.886185 13.994066,25 14.46875,25 l 19.0625,0 c 0.476038,0 0.929298,-0.11307 1.34375,-0.3125 0.207226,-0.09971 0.409098,-0.232799 0.59375,-0.375 0.184652,-0.142201 0.342708,-0.288978 0.5,-0.46875 C 36.598596,23.125854 37,22.128418 37,21 c 0,-0.183418 -0.01107,-0.355105 -0.03125,-0.53125 -0.0032,-0.01956 0.0035,-0.04305 0,-0.0625 C 36.877793,19.902367 36.659826,19.430873 36.4375,19 l -1.0625,0 c 0.377188,0.511977 0.625,1.196919 0.625,2 10e-7,1.794054 -1.182922,3 -2.46875,3 l -19.0625,0 C 13.182922,23.999999 12,22.794053 12,21 c 0,-0.803081 0.247812,-1.488023 0.625,-2 l -1.0625,0 z"
         id="path3299"
         sodipodi:nodetypes="cccsssssccssssssccsccscc"
         style="opacity:0.5;fill:#ffffff;fill-opacity:1;stroke:none" />
      <path
         inkscape:connector-curvature="0"
         d="m 15,19.25 0,1.3125 C 15,21.350226 15.649774,22 16.4375,22 l 15.125,0 C 32.350226,22 33,21.350226 33,20.5625 L 33,19.25 c -0.481727,0.278997 -0.820899,0.771035 -0.9375,1.34375 C 32.04967,20.66098 32.00479,20.695863 31.96875,20.75 31.904537,20.908347 31.750768,21 31.5625,21 l -15.125,0 C 16.262617,21.0031 16.123355,20.888349 16.03125,20.75 15.99521,20.69586 15.95033,20.66098 15.9375,20.59375 15.820899,20.021035 15.481727,19.528997 15,19.25 z"
         id="rect3343"
         sodipodi:nodetypes="ccccccssccssc"
         style="opacity:0.8;fill:#ffffff;fill-opacity:1;stroke:none" />
    </g>
    <path
       transform="matrix(0.61293946,0,0,0.61293946,1.3720442,3.0909253)"
       d="m 11.5,19 c -0.301873,0.592213 -0.5,1.27145 -0.5,2 -10e-7,2.256835 1.570013,4 3.46875,4 l 19.0625,0 C 35.429987,25 37.000001,23.256835 37,21 37,20.27145 36.801873,19.592213 36.5,19 L 34,19 c -0.975674,0 -1.750938,0.677406 -1.9375,1.59375 A 0.50004997,0.50004997 0 0 1 31.5625,21 l -15.125,0 a 0.50004997,0.50004997 0 0 1 -0.5,-0.40625 C 15.750938,19.677406 14.975674,19 14,19 l -2.5,0 z"
       id="path3485"
       inkscape:original="M 11.1875 18.5 C 10.768143 19.213373 10.5 20.075257 10.5 21 C 10.499999 23.492999 12.266265 25.5 14.46875 25.5 L 33.53125 25.5 C 35.733735 25.5 37.500001 23.492999 37.5 21 C 37.5 20.075257 37.231857 19.213373 36.8125 18.5 L 34 18.5 C 32.788125 18.5 31.794854 19.35874 31.5625 20.5 L 16.4375 20.5 C 16.205146 19.35874 15.211875 18.5 14 18.5 L 11.1875 18.5 z "
       inkscape:radius="-0.49999997"
       sodipodi:type="inkscape:offset"
       style="fill:url(#radialGradient2504);fill-opacity:1;stroke:none" />
    <rect
       style="fill:none;stroke:#bf1010;stroke-width:1.01369786;stroke-miterlimit:4;stroke-opacity:1;stroke-dasharray:none"
       id="rect3498"
       width="30.506224"
       height="25.207954"
       x="0.81689954"
       y="3.0605829"
       ry="6.0132561" />
  </g>
</svg>
